<?xml version="1.0" encoding="UTF-8"?>
<!DOCTYPE svg PUBLIC "-//W3C//DTD SVG 1.1//EN" "http://www.w3.org/Graphics/SVG/1.1/DTD/svg11.dtd">
<!-- Creator: CorelDRAW 2017 -->
<svg xmlns="http://www.w3.org/2000/svg" xml:space="preserve" width="1.25926in" height="0.887642in" version="1.1" style="shape-rendering:geometricPrecision; text-rendering:geometricPrecision; image-rendering:optimizeQuality; fill-rule:evenodd; clip-rule:evenodd"
viewBox="0 0 439 310"
 xmlns:xlink="http://www.w3.org/1999/xlink">
 <defs>
  <style type="text/css">
   <![CDATA[
    .fil2 {fill:white}
    .fil1 {fill:#ACACAC;fill-rule:nonzero}
    .fil0 {fill:#B50B2D;fill-rule:nonzero}
   ]]>
  </style>
 </defs>
 <g id="Layer_x0020_1">
  <metadata id="CorelCorpID_0Corel-Layer"/>
  <g id="_2158761912896">
   <path class="fil0" d="M339 187c0,68 -55,123 -123,123 -68,0 -123,-55 -123,-123 0,-68 55,-123 123,-123 68,0 123,55 123,123z"/>
   <path class="fil1" d="M116 258c22,31 59,52 100,52 51,0 94,-31 113,-74 -22,-31 -59,-52 -100,-52 -51,0 -94,31 -113,74z"/>
   <path class="fil2" d="M217 45c16,0 29,13 29,29 0,16 -13,29 -29,29 -16,0 -29,-13 -29,-29 0,-16 13,-29 29,-29zm55 79c14,-15 21,-36 19,-59 -4,-34 -31,-61 -65,-64 -45,-5 -82,30 -82,74 0,19 7,37 19,50l47 55c4,5 12,5 16,0l47 -55z"/>
   <path class="fil0" d="M439 100c0,16 -13,29 -29,29 -16,0 -29,-13 -29,-29 0,-16 13,-29 29,-29 16,0 29,13 29,29z"/>
   <path class="fil0" d="M32 261c0,9 -7,16 -16,16 -9,0 -16,-7 -16,-16 0,-9 7,-16 16,-16 9,0 16,7 16,16z"/>
   <path class="fil0" d="M113 29c0,9 -7,16 -16,16 -9,0 -16,-7 -16,-16 0,-9 7,-16 16,-16 9,0 16,7 16,16z"/>
  </g>
 </g>
</svg>
