<?xml version="1.0" encoding="UTF-8"?>
<!DOCTYPE svg PUBLIC "-//W3C//DTD SVG 1.1//EN" "http://www.w3.org/Graphics/SVG/1.1/DTD/svg11.dtd">
<!-- Creator: CorelDRAW 2017 -->
<svg xmlns="http://www.w3.org/2000/svg" xml:space="preserve" width="0.268378in" height="0.197154in" version="1.1" style="shape-rendering:geometricPrecision; text-rendering:geometricPrecision; image-rendering:optimizeQuality; fill-rule:evenodd; clip-rule:evenodd"
viewBox="0 0 15 11"
 xmlns:xlink="http://www.w3.org/1999/xlink">
 <defs>
  <style type="text/css">
   <![CDATA[
    .fil0 {fill:white}
   ]]>
  </style>
 </defs>
 <g id="Layer_x0020_1">
  <metadata id="CorelCorpID_0Corel-Layer"/>
  <g id="_2159134770496">
   <path class="fil0" d="M11 5c0,0 0,0 0,0 0,0 0,0 0,0 0,0 0,-1 0,-1 0,0 0,-1 -1,-1 0,0 0,0 0,0 0,0 0,0 0,1 0,0 -1,1 -1,2 0,1 -1,1 -1,2 0,0 0,0 0,0 0,0 0,0 0,0 0,0 -1,-1 -1,-1 0,0 0,0 0,0 0,0 0,0 0,-1 0,0 -1,0 -1,0 0,0 0,0 0,0 0,0 0,0 0,0l-1 1c-1,1 -1,1 -1,2 0,0 0,0 0,0 0,0 0,0 0,0 1,-1 1,-1 2,-2 0,0 1,-1 1,-1 0,0 0,0 0,0 0,0 0,0 1,0l1 1c0,0 0,0 0,0 0,0 0,0 0,1 0,0 1,0 1,0 0,0 0,0 0,0 0,0 0,0 0,0 0,0 0,0 0,-1l2 -3c0,0 0,0 0,0 0,0 1,1 1,1 0,0 0,1 0,1 0,0 1,0 1,0 0,0 0,0 0,0 0,0 0,0 0,-1l1 -1c0,0 0,0 0,0l0 0c0,0 0,0 0,0l1 -1c0,0 0,0 0,0 0,0 0,0 1,0 0,0 0,-1 0,-1 0,0 0,0 0,0 0,0 0,0 0,1 0,0 0,0 0,0 0,0 0,0 0,0 0,0 -1,1 -1,1l-1 1c0,0 -1,1 -1,1z"/>
   <path class="fil0" d="M0 0l0 11c0,0 0,0 0,0l15 0c0,0 0,0 0,0l0 0c0,0 0,0 0,0 0,0 0,0 0,0l-14 0 0 -10c0,0 0,0 0,0 0,0 0,0 0,0 0,0 0,0 0,0l0 0 0 0 0 0c0,0 0,0 0,0z"/>
  </g>
 </g>
</svg>
